<svg width="20" height="20" viewBox="0 0 20 20" fill="none" xmlns="http://www.w3.org/2000/svg">
<path d="M10 0.247269C4.62391 0.247269 0.25 4.62118 0.25 9.99727C0.25 15.3734 4.62391 19.7473 10 19.7473C15.3761 19.7473 19.75 15.3734 19.75 9.99727C19.75 4.62118 15.3761 0.247269 10 0.247269ZM13.75 10.7473H10.75V13.7473C10.75 13.9462 10.671 14.1369 10.5303 14.2776C10.3897 14.4183 10.1989 14.4973 10 14.4973C9.80109 14.4973 9.61032 14.4183 9.46967 14.2776C9.32902 14.1369 9.25 13.9462 9.25 13.7473V10.7473H6.25C6.05109 10.7473 5.86032 10.6683 5.71967 10.5276C5.57902 10.3869 5.5 10.1962 5.5 9.99727C5.5 9.79836 5.57902 9.60759 5.71967 9.46694C5.86032 9.32629 6.05109 9.24727 6.25 9.24727H9.25V6.24727C9.25 6.04836 9.32902 5.85759 9.46967 5.71694C9.61032 5.57629 9.80109 5.49727 10 5.49727C10.1989 5.49727 10.3897 5.57629 10.5303 5.71694C10.671 5.85759 10.75 6.04836 10.75 6.24727V9.24727H13.75C13.9489 9.24727 14.1397 9.32629 14.2803 9.46694C14.421 9.60759 14.5 9.79836 14.5 9.99727C14.5 10.1962 14.421 10.3869 14.2803 10.5276C14.1397 10.6683 13.9489 10.7473 13.75 10.7473Z" fill="#008C8C"/>
</svg>
