<svg width="20" height="20" viewBox="0 0 20 20" fill="none" xmlns="http://www.w3.org/2000/svg">
<path d="M10 0.247879C4.62391 0.247879 0.25 4.62179 0.25 9.99788C0.25 15.374 4.62391 19.7479 10 19.7479C15.3761 19.7479 19.75 15.374 19.75 9.99788C19.75 4.62179 15.3761 0.247879 10 0.247879ZM13.75 10.7479H6.25C6.05109 10.7479 5.86032 10.6689 5.71967 10.5282C5.57902 10.3876 5.5 10.1968 5.5 9.99788C5.5 9.79897 5.57902 9.6082 5.71967 9.46755C5.86032 9.3269 6.05109 9.24788 6.25 9.24788H13.75C13.9489 9.24788 14.1397 9.3269 14.2803 9.46755C14.421 9.6082 14.5 9.79897 14.5 9.99788C14.5 10.1968 14.421 10.3876 14.2803 10.5282C14.1397 10.6689 13.9489 10.7479 13.75 10.7479Z" fill="#B3B3B3"/>
</svg>
